# xmcd
#
# Track frame offsets: 
#        150
#        14062
#        29140
#        48180
#        59660
#        73522
#        84777
#        99135
#        113192
#        127102
#
# Disc length: 1898 seconds
#
# Revision: 2
# Processed by: cddbd v1.5.2PL0 Copyright (c) Steve Scherf et al.
# Submitted via: ExactAudioCopy v0.90b4
#
DISCID=8607680a
DTITLE=Patty Loveless - Greatest Hits
DYEAR=1993
DGENRE=Country
TTITLE0=If My Heart Had Windows
TTITLE1=Blue Side Of Town
TTITLE2=Don't Toss Us Away
TTITLE3=Timber, I'm Falling In Love
TTITLE4=The Lonely Side Of Love
TTITLE5=Chains
TTITLE6=On Down The Line
TTITLE7=I'm That Kind Of Girl
TTITLE8=Hurt Me Bad (In A Real Good Way)
TTITLE9=Jealous Bone
EXTD=
EXTT0=
EXTT1=
EXTT2=
EXTT3=
EXTT4=
EXTT5=
EXTT6=
EXTT7=
EXTT8=
EXTT9=
PLAYORDER=
